{"title":"Kara Sevda S01E23.DVB-T.X264.ARI Greek Subs","uid":15258743,"size":411312631,"categoryP":"video","categoryS":"tv_shows","magnet":"?xt=urn:btih:764d3a0bcfd0e97c5a7eef0ec531d26aec0ffcbd&amp;dn=Kara+Sevda+S01E23.DVB-T.X264.ARI+Greek+Subs&amp;tr=udp%3A%2F%2Ftracker.leechers-paradise.org%3A6969&amp;tr=udp%3A%2F%2Fzer0day.ch%3A1337&amp;tr=udp%3A%2F%2Fopen.demonii.com%3A1337&amp;tr=udp%3A%2F%2Ftracker.coppersurfer.tk%3A6969&amp;tr=udp%3A%2F%2Fexodus.desync.com%3A6969","seeders":5,"leechers":0,"uploader":"Aris2015","files":1,"time":1468160680,"description":"General\r\nComplete name               : Kara Sevda S01E23.DVB-T.X264.ARI.mp4\r\nFormat                      : MPEG-4\r\nFormat profile              : Base Media\r\nCodec ID                    : isom (isom/iso2/avc1/mp41)\r\nFile size                   : 392 MiB\r\nDuration                    : 48mn 29s\r\nOverall bit rate mode       : Variable\r\nOverall bit rate            : 1 131 Kbps\r\nMovie name                  : Kara Sevda S01E23.DVB-T.X264.ARI\r\nPerformer                   : ARI\r\nEncoded date                : UTC 2016-07-10 05:33:20\r\nTagged date                 : UTC 2016-07-10 05:33:20\r\nWriting application         : Lavf57.37.100\r\nCopyright                   : MEGA TV\r\n\r\nVideo\r\nID                          : 1\r\nFormat                      : AVC\r\nFormat/Info                 : Advanced Video Codec\r\nFormat profile              :   \r\nFormat settings, CABAC      : Yes\r\nFormat settings, ReFrames   : 5 frames\r\nCodec ID                    : avc1\r\nCodec ID/Info               : Advanced Video Coding\r\nDuration                    : 48mn 29s\r\nBit rate mode               : Variable\r\nBit rate                    : 1 000 Kbps\r\nMaximum bit rate            : 17.5 Mbps\r\nWidth                       : 720 pixels\r\nHeight                      : 576 pixels\r\nDisplay aspect ratio        : 16:9\r\nFrame rate mode             : Constant\r\nFrame rate                  : 25.000 fps\r\nStandard                    : PAL\r\nColor space                 : YUV\r\nChroma subsampling          : 4:2:0\r\nBit depth                   : 8 bits\r\nScan type                   : Progressive\r\nBits/(Pixel*Frame)          : 0.096\r\nStream size                 : 346 MiB (88%)\r\nWriting library             : x264 core 148 r2643\r\n\r\n\r\nAudio\r\nID                          : 2\r\nFormat                      : AAC\r\nFormat/Info                 : Advanced Audio Codec\r\nFormat profile              : LC\r\nCodec ID                    : 40\r\nDuration                    : 48mn 29s\r\nDuration_LastFrame          : -11ms\r\nBit rate mode               : Constant\r\nBit rate                    : 128 Kbps\r\nChannel(s)                  : 2 channels\r\nChannel positions           : Front: L R\r\nSampling rate               : 48.0 KHz\r\nFrame rate                  : 46.875 fps (1024 spf)\r\nCompression mode            : Lossy\r\nStream size                 : 44.4 MiB (11%)\r\nLanguage                    : Turkish\r\nDefault                     : Yes","torrent":{"xt":"urn:btih:764d3a0bcfd0e97c5a7eef0ec531d26aec0ffcbd","amp;dn":"Kara+Sevda+S01E23.DVB-T.X264.ARI+Greek+Subs","amp;tr":["udp%3A%2F%2Ftracker.leechers-paradise.org%3A6969","udp%3A%2F%2Fzer0day.ch%3A1337","udp%3A%2F%2Fopen.demonii.com%3A1337","udp%3A%2F%2Ftracker.coppersurfer.tk%3A6969","udp%3A%2F%2Fexodus.desync.com%3A6969"],"infoHash":"764d3a0bcfd0e97c5a7eef0ec531d26aec0ffcbd","infoHashBuffer":{"type":"Buffer","data":[118,77,58,11,207,208,233,124,90,126,239,14,197,49,210,106,236,15,252,189]},"announce":[],"urlList":[]}}